# xmcd CD database file
#
# Track frame offsets:
#	150
#	16760
#	31180
#	42280
#	54935
#	64155
#	76622
#	87892
#	100437
#	111612
#	123212
#	135662
#
# Disc length: 1959 seconds
#
# Revision: 0
# Processed by: cddbd v1.5.2PL0 Copyright (c) Steve Scherf et al.
# Submitted via: jetAudio 7
#
DISCID=9007a50c
DTITLE=Floyd Cramer - Gospel Favorites
DYEAR=1900
DGENRE=Gospel
TTITLE0=Oh Happy Day
TTITLE1=Morning Has Broken
TTITLE2=Peace In The Valley
TTITLE3=Where No One Stands Alone
TTITLE4=The Gospel Theme
TTITLE5=I Saw The Light
TTITLE6=How Great Thou Art
TTITLE7=Vaya Con Dios
TTITLE8=He
TTITLE9=A Song Of Joy (Himno A La Alegria)
TTITLE10=Amazing Grace
TTITLE11=Amen
EXTD=
EXTT0=
EXTT1=
EXTT2=
EXTT3=
EXTT4=
EXTT5=
EXTT6=
EXTT7=
EXTT8=
EXTT9=
EXTT10=
EXTT11=
PLAYORDER=
